<svg xmlns="http://www.w3.org/2000/svg" width="213" height="32" viewBox="0 0 213 32">
  <g fill="#FFF">
    <path d="M208.426667 6.08C210.346667 6.08 212.16 7.46666667 212.16 9.70666667 212.16 11.9466667 210.453333 13.3333333 208.426667 13.3333333 206.4 13.3333333 204.693333 11.9466667 204.693333 9.70666667 204.8 7.46666667 206.506667 6.08 208.426667 6.08M208.426667 12.48C209.92 12.48 211.093333 11.3066667 211.093333 9.6 211.093333 8 209.92 6.82666667 208.426667 6.82666667 206.933333 6.82666667 205.76 8 205.76 9.6 205.76 11.3066667 206.933333 12.48 208.426667 12.48M207.04 7.68L208.533333 7.68C209.493333 7.68 210.133333 8 210.133333 8.85333333 210.133333 9.6 209.706667 9.92 209.066667 9.92L210.133333 11.7333333 209.28 11.7333333 208.32 10.0266667 207.786667 10.0266667 207.786667 11.7333333 206.933333 11.7333333 206.933333 7.68 207.04 7.68zM207.786667 9.38666667L208.533333 9.38666667C208.96 9.38666667 209.28 9.28 209.28 8.85333333 209.28 8.42666667 208.853333 8.32 208.426667 8.32L207.786667 8.32 207.786667 9.38666667 207.786667 9.38666667zM3.73333333 15.68L-9.18968605e-14 15.68-9.18968605e-14 11.7333333 3.73333333 11.7333333 3.73333333 8.85333333C3.73333333 4.16 5.54666667 4.35799545e-14 11.6266667 4.35799545e-14 12.6933333 4.35799545e-14 13.44.106666667 14.08.32L13.76 4.48C13.2266667 4.26666667 12.5866667 4.16 11.84 4.16 9.06666667 4.16 8.53333333 6.61333333 8.53333333 8.53333333L8.53333333 11.7333333 13.12 11.7333333 13.12 15.68 8.53333333 15.68 8.53333333 31.36 3.62666667 31.36 3.62666667 15.68 3.73333333 15.68zM24.96 11.2C30.9333333 11.2 35.6266667 15.36 35.6266667 21.5466667 35.6266667 27.7333333 30.8266667 32 24.96 32 18.9866667 32 14.2933333 27.7333333 14.2933333 21.5466667 14.2933333 15.36 18.9866667 11.2 24.96 11.2M24.96 27.84C28.8 27.84 30.6133333 24.5333333 30.6133333 21.44 30.6133333 18.3466667 28.8 15.1466667 24.96 15.1466667 21.12 15.1466667 19.3066667 18.3466667 19.3066667 21.44 19.3066667 24.5333333 21.12 27.84 24.96 27.84M38.72 11.7333333L43.4133333 11.7333333 43.4133333 15.04 43.52 15.04C44.5866667 12.8 46.72 11.2 49.28 11.2 49.6 11.2 50.1333333 11.2 50.4533333 11.3066667L50.4533333 15.7866667C49.8133333 15.5733333 49.3866667 15.5733333 48.96 15.5733333 44.5866667 15.5733333 43.7333333 19.4133333 43.7333333 20.9066667L43.7333333 31.4666667 38.8266667 31.4666667 38.8266667 11.7333333 38.72 11.7333333zM71.04 23.1466667L56.1066667 23.1466667C56.32 25.92 58.88 27.9466667 61.76 27.9466667 64.2133333 27.9466667 65.8133333 26.9866667 66.9866667 25.3866667L70.2933333 28.0533333C68.3733333 30.72 65.6 32 61.8666667 32 55.7866667 32 51.3066667 28.16 51.3066667 21.76 51.3066667 15.4666667 55.7866667 11.2 61.76 11.2 67.2 11.2 71.2533333 14.72 71.2533333 21.8666667 71.04 22.2933333 71.04 22.72 71.04 23.1466667M66.1333333 19.6266667C66.1333333 17.0666667 64.7466667 14.8266667 61.5466667 14.8266667 58.6666667 14.8266667 56.32 16.8533333 56.1066667 19.6266667L66.1333333 19.6266667z"/>
    <polygon points="71.573 11.733 76.907 11.733 82.027 26.027 82.133 26.027 87.36 11.733 92.587 11.733 84.693 31.36 79.467 31.36"/>
    <path d="M112.64 23.1466667L97.7066667 23.1466667C97.92 25.92 100.48 27.9466667 103.36 27.9466667 105.813333 27.9466667 107.413333 26.9866667 108.586667 25.3866667L111.893333 28.0533333C109.973333 30.72 107.2 32 103.466667 32 97.3866667 32 92.9066667 28.16 92.9066667 21.76 92.9066667 15.4666667 97.3866667 11.2 103.36 11.2 108.8 11.2 112.853333 14.72 112.853333 21.8666667 112.746667 22.2933333 112.746667 22.72 112.64 23.1466667M107.84 19.6266667C107.84 17.0666667 106.453333 14.8266667 103.253333 14.8266667 100.373333 14.8266667 98.0266667 16.8533333 97.8133333 19.6266667L107.84 19.6266667zM116.373333 11.7333333L121.066667 11.7333333 121.066667 15.04 121.173333 15.04C122.24 12.8 124.373333 11.2 126.933333 11.2 127.253333 11.2 127.786667 11.2 128.106667 11.3066667L128.106667 15.7866667C127.466667 15.5733333 127.04 15.5733333 126.613333 15.5733333 122.24 15.5733333 121.28 19.4133333 121.28 20.9066667L121.28 31.4666667 116.373333 31.4666667 116.373333 11.7333333zM138.026667 15.68L134.293333 15.68 134.293333 11.7333333 138.026667 11.7333333 138.026667 8.85333333C138.026667 4.16 139.84 4.35799545e-14 145.92 4.35799545e-14 146.986667 4.35799545e-14 147.733333.106666667 148.373333.32L148.053333 4.48C147.52 4.26666667 146.88 4.16 146.133333 4.16 143.36 4.16 142.826667 6.61333333 142.826667 8.53333333L142.826667 11.7333333 147.413333 11.7333333 147.413333 15.68 142.826667 15.68 142.826667 31.36 137.92 31.36 137.92 15.68 138.026667 15.68zM153.493333 2.13333333C155.306667 2.13333333 156.693333 3.41333333 156.693333 5.12 156.693333 6.82666667 155.306667 8.10666667 153.493333 8.10666667 151.68 8.10666667 150.4 6.72 150.4 5.12 150.4 3.52 151.68 2.13333333 153.493333 2.13333333M151.04 11.7333333L155.946667 11.7333333 155.946667 31.36 151.04 31.36 151.04 11.7333333 151.04 11.7333333zM159.573333 11.7333333L164.266667 11.7333333 164.266667 15.04 164.373333 15.04C165.44 12.8 167.573333 11.2 170.133333 11.2 170.453333 11.2 170.986667 11.2 171.306667 11.3066667L171.306667 15.7866667C170.666667 15.5733333 170.24 15.5733333 169.813333 15.5733333 165.44 15.5733333 164.586667 19.4133333 164.586667 20.9066667L164.586667 31.4666667 159.68 31.4666667 159.68 11.7333333 159.573333 11.7333333zM184.746667 16.96C183.893333 15.7866667 182.293333 14.8266667 180.48 14.8266667 178.88 14.8266667 177.28 15.36 177.28 16.96 177.28 18.4533333 178.773333 18.88 181.546667 19.52 184.426667 20.16 187.946667 21.5466667 187.946667 25.3866667 187.946667 30.1866667 184.106667 31.8933333 179.733333 31.8933333 176.746667 31.8933333 173.546667 30.72 171.626667 28.6933333L174.826667 25.7066667C175.893333 27.0933333 177.706667 28.16 179.84 28.16 181.226667 28.16 183.04 27.6266667 183.04 25.8133333 183.04 24.2133333 181.546667 23.68 178.56 22.9333333 175.68 22.1866667 172.693333 21.0133333 172.693333 17.3866667 172.693333 13.0133333 176.64 11.0933333 180.48 11.0933333 183.36 11.0933333 186.24 12.0533333 187.84 14.08L184.746667 16.96zM189.546667 15.68L189.546667 11.7333333 192.96 11.7333333 192.96 6.08 197.76 6.08 197.76 11.7333333 202.666667 11.7333333 202.666667 15.68 197.76 15.68 197.76 24.8533333C197.76 26.6666667 198.186667 27.84 200.32 27.84 200.96 27.84 201.813333 27.7333333 202.453333 27.4133333L202.666667 31.2533333C201.813333 31.5733333 200.533333 31.7866667 199.36 31.7866667 194.133333 31.7866667 192.96 28.5866667 192.96 24.8533333L192.96 15.68 189.546667 15.68 189.546667 15.68z"/>
  </g>
</svg>
