<?xml version="1.0" encoding="utf-8"?>
<!-- Generator: Adobe Illustrator 24.0.3, SVG Export Plug-In . SVG Version: 6.00 Build 0)  -->
<svg version="1.1" id="Layer_1" xmlns="http://www.w3.org/2000/svg" xmlns:xlink="http://www.w3.org/1999/xlink" x="0px" y="0px"
	 viewBox="0 0 56 40" style="enable-background:new 0 0 56 40;" xml:space="preserve">
<style type="text/css">
	.st0{fill:#FFFFFF;}
</style>
<path class="st0" d="M54,6.7c-0.6-2.4-2.5-4.3-4.8-4.9C44.9,0.6,28,0.6,28,0.6s-16.9,0-21.2,1.2C4.5,2.4,2.7,4.3,2,6.7
	C0.9,11,0.9,20,0.9,20s0,9,1.1,13.3c0.6,2.4,2.5,4.2,4.8,4.8c4.2,1.2,21.2,1.2,21.2,1.2s16.9,0,21.2-1.2c2.3-0.6,4.2-2.4,4.8-4.8
	c1.1-4.3,1.1-13.3,1.1-13.3S55.1,11,54,6.7z M22.5,28.2V11.9L36.6,20L22.5,28.2z"/>
</svg>
