<?xml version="1.0" encoding="utf-8"?>
<!-- Generator: Adobe Illustrator 24.0.3, SVG Export Plug-In . SVG Version: 6.00 Build 0)  -->
<svg version="1.1" id="Layer_1" xmlns="http://www.w3.org/2000/svg" xmlns:xlink="http://www.w3.org/1999/xlink" x="0px" y="0px"
	 viewBox="0 0 40 40" style="enable-background:new 0 0 40 40;" xml:space="preserve">
<style type="text/css">
	.st0{fill:#FFFFFF;}
</style>
<path class="st0" d="M9,39.5H0.8V13.5H9V39.5z M4.9,9.9c-2.6,0-4.8-2.1-4.8-4.7c0-2.6,2.1-4.7,4.8-4.7s4.8,2.1,4.8,4.7
	C9.7,7.8,7.5,9.9,4.9,9.9z M39.9,39.5h-8.2V26.8c0-3-0.1-6.9-4.3-6.9c-4.3,0-4.9,3.3-4.9,6.7v12.9h-8.2V13.5h7.9V17h0.1
	c1.1-2,3.8-4.2,7.8-4.2c8.3,0,9.9,5.4,9.9,12.4L39.9,39.5L39.9,39.5z"/>
</svg>
